<?xml version="1.0" encoding="UTF-8" standalone="no"?>
<!DOCTYPE svg PUBLIC "-//W3C//DTD SVG 1.1//EN" "http://www.w3.org/Graphics/SVG/1.1/DTD/svg11.dtd">
<svg width="100%" height="100%" viewBox="0 0 1545 1545" version="1.1" xmlns="http://www.w3.org/2000/svg" xmlns:xlink="http://www.w3.org/1999/xlink" xml:space="preserve" xmlns:serif="http://www.serif.com/" style="fill-rule:evenodd;clip-rule:evenodd;stroke-linejoin:round;stroke-miterlimit:1.41421;">
    <g transform="matrix(-1,5.11743e-17,-5.11743e-17,-1,1547.82,1538.57)">
        <path d="M1543.21,772.869C1543.9,349.581 1196.16,0.694 772.869,0.001C349.58,-0.693 0.693,347.054 0,770.342C-0.693,1193.63 347.053,1542.52 770.342,1543.21C1193.48,1543.5 1542.12,1196.01 1543.21,772.869ZM87.36,770.486C87.971,395.114 397.362,86.739 772.729,87.351C1148.1,87.968 1456.48,397.359 1455.86,772.725C1455.25,1148.1 1145.86,1456.47 770.49,1455.86C395.268,1454.84 87.142,1145.7 87.36,770.486ZM669.217,1066.25C661.031,1074.22 650.047,1078.67 638.624,1078.65C614.619,1078.61 594.903,1058.83 594.938,1034.83C594.958,1023.05 599.734,1011.76 608.176,1003.55L844.404,771.723L607.482,538.399C595.218,530.312 587.833,516.56 587.855,501.871C587.895,477.91 607.646,458.227 631.602,458.268C647.229,458.295 661.693,466.699 669.45,480.268L936.161,747.852C942.709,754.359 947.029,762.777 948.498,771.894C948.394,783.428 943.652,794.449 935.344,802.446L669.217,1066.25Z" style="fill:white;fill-rule:nonzero;"/>
    </g>
</svg>
