<?xml version="1.0" encoding="UTF-8" standalone="no"?><!DOCTYPE svg PUBLIC "-//W3C//DTD SVG 1.1//EN" "http://www.w3.org/Graphics/SVG/1.1/DTD/svg11.dtd"><svg width="100%" height="100%" viewBox="0 0 278 278" version="1.1" xmlns="http://www.w3.org/2000/svg" xmlns:xlink="http://www.w3.org/1999/xlink" xml:space="preserve" xmlns:serif="http://www.serif.com/" style="fill-rule:evenodd;clip-rule:evenodd;stroke-linejoin:round;stroke-miterlimit:1.41421;"><path d="M138.889,277.778c76.192,0 138.889,-62.697 138.889,-138.889c0,-76.192 -62.697,-138.889 -138.889,-138.889c-76.192,0 -138.889,62.697 -138.889,138.889c0.072,76.165 62.724,138.817 138.889,138.889Zm0,-262.055c67.567,0 123.166,55.599 123.166,123.166c0,67.567 -55.599,123.166 -123.166,123.166c-67.567,0 -123.166,-55.599 -123.166,-123.166c0.072,-67.54 55.626,-123.094 123.166,-123.166Zm-53.066,104.822c-1.437,-1.471 -2.242,-3.447 -2.242,-5.503c0,-4.321 3.555,-7.876 7.876,-7.876c2.12,0 4.153,0.856 5.634,2.373l41.798,42.453l41.929,-42.715c1.452,-2.21 3.925,-3.543 6.569,-3.543c4.313,0 7.861,3.549 7.861,7.861c0,2.813 -1.509,5.419 -3.948,6.819l-48.087,48.087c-1.17,1.181 -2.684,1.961 -4.324,2.228c-2.076,-0.016 -4.061,-0.866 -5.503,-2.359l-47.563,-47.825Z" style="fill:#fff;fill-rule:nonzero;"/></svg>