<?xml version="1.0" encoding="UTF-8" standalone="no"?><!DOCTYPE svg PUBLIC "-//W3C//DTD SVG 1.1//EN" "http://www.w3.org/Graphics/SVG/1.1/DTD/svg11.dtd"><svg width="100%" height="100%" viewBox="0 0 1545 1545" version="1.1" xmlns="http://www.w3.org/2000/svg" xmlns:xlink="http://www.w3.org/1999/xlink" xml:space="preserve" xmlns:serif="http://www.serif.com/" style="fill-rule:evenodd;clip-rule:evenodd;stroke-linejoin:round;stroke-miterlimit:1.41421;"><path d="M1543.21,772.869c0.694,-423.288 -347.053,-772.175 -770.341,-772.868c-423.289,-0.694 -772.176,347.053 -772.869,770.341c-0.693,423.289 347.053,772.176 770.342,772.869c423.139,0.293 771.775,-347.203 772.868,-770.342Zm-1455.85,-2.383c0.611,-375.372 310.002,-683.747 685.369,-683.135c375.372,0.617 683.747,310.008 683.135,685.374c-0.617,375.372 -310.008,683.748 -685.374,683.131c-375.222,-1.012 -683.348,-310.153 -683.13,-685.37Zm581.857,295.766c-8.186,7.964 -19.17,12.421 -30.593,12.401c-24.005,-0.041 -43.721,-19.825 -43.686,-43.825c0.02,-11.777 4.796,-23.065 13.238,-31.279l236.228,-231.826l-236.922,-233.324c-12.264,-8.087 -19.649,-21.839 -19.627,-36.528c0.04,-23.961 19.791,-43.644 43.747,-43.603c15.627,0.027 30.091,8.431 37.848,22l266.711,267.584c6.548,6.507 10.868,14.925 12.337,24.042c-0.104,11.534 -4.846,22.555 -13.154,30.552l-266.127,263.806Z" style="fill:#fff;fill-rule:nonzero;"/></svg>