<?xml version="1.0" encoding="UTF-8" standalone="no"?><!DOCTYPE svg PUBLIC "-//W3C//DTD SVG 1.1//EN" "http://www.w3.org/Graphics/SVG/1.1/DTD/svg11.dtd"><svg width="100%" height="100%" viewBox="0 0 278 278" version="1.1" xmlns="http://www.w3.org/2000/svg" xmlns:xlink="http://www.w3.org/1999/xlink" xml:space="preserve" xmlns:serif="http://www.serif.com/" style="fill-rule:evenodd;clip-rule:evenodd;stroke-linejoin:round;stroke-miterlimit:1.41421;"><path d="M139.073,0c-76.192,-0.101 -138.972,62.513 -139.073,138.705c-0.101,76.192 62.513,138.972 138.705,139.073c76.192,0.101 138.972,-62.513 139.073,-138.705c0.029,-76.165 -62.54,-138.9 -138.705,-139.073Zm-0.347,262.054c-67.567,-0.089 -123.092,-55.762 -123.003,-123.328c0.09,-67.567 55.763,-123.092 123.329,-123.003c67.567,0.09 123.092,55.763 123.002,123.329c-0.161,67.54 -55.789,123.02 -123.328,123.002Zm53.205,-104.751c1.434,1.473 2.237,3.45 2.234,5.506c-0.006,4.321 -3.566,7.871 -7.886,7.866c-2.12,-0.003 -4.152,-0.862 -5.631,-2.381l-41.742,-42.508l-41.985,42.659c-1.455,2.208 -3.93,3.538 -6.574,3.535c-4.313,-0.006 -7.857,-3.56 -7.851,-7.872c0.004,-2.813 1.516,-5.417 3.958,-6.814l48.15,-48.023c1.171,-1.179 2.686,-1.957 4.327,-2.222c2.076,0.018 4.06,0.871 5.5,2.366l47.5,47.888Z" style="fill:#fff;fill-rule:nonzero;"/></svg>