<?xml version="1.0" encoding="UTF-8" standalone="no"?>
<!DOCTYPE svg PUBLIC "-//W3C//DTD SVG 1.1//EN" "http://www.w3.org/Graphics/SVG/1.1/DTD/svg11.dtd">
<svg width="100%" height="100%" viewBox="0 0 300 220" version="1.1" xmlns="http://www.w3.org/2000/svg" xmlns:xlink="http://www.w3.org/1999/xlink" xml:space="preserve" xmlns:serif="http://www.serif.com/" style="fill-rule:evenodd;clip-rule:evenodd;stroke-linejoin:round;stroke-miterlimit:1.41421;">
    <g>
        <path d="M101.6,175.5L100.6,175.5L97.2,81.9L93.9,145.3L92.9,145.2L90.3,101.1L88.7,120L87.8,120L84.9,107.8L83.5,118.3L82.7,117.9L79.6,108.6L52.3,108.6L52.3,107.6L80.4,107.6L80.4,108.3L83,116.1L84.3,105.7L85.2,105.5L88.1,117.5L89.9,96.2L90.9,96.1L93.4,139.1L96.7,74.4L97.7,74.4L101,165.2L104.9,22.9L105.7,22.9L101.6,175.5Z" style="fill:rgb(160,160,160);fill-rule:nonzero;stroke:rgb(160,160,160);stroke-width:1px;"/>
        <path d="M106.4,22.919L102.3,175.519L101.6,176.2L100.6,176.2L99.9,175.525L97.076,97.757L94.599,145.336L93.83,145.997L92.83,145.897L92.201,145.241L90.175,110.874L89.398,120.059L88.7,120.7L87.8,120.7L87.119,120.162L85.094,111.642L84.194,118.393L83.187,118.926L82.387,118.526L82.036,118.121L79.095,109.3L52.3,109.3L51.6,108.6L51.6,107.6L52.3,106.9L80.4,106.9L81.1,107.6L81.1,108.186L82.688,112.951L83.605,105.613L84.148,105.017L85.048,104.817L85.88,105.336L87.766,113.138L89.202,96.141L89.83,95.503L90.83,95.403L91.599,96.059L93.354,126.254L96.001,74.364L96.7,73.7L97.7,73.7L98.4,74.375L100.902,143.228L104.2,22.881L104.9,22.2L105.7,22.2L106.4,22.919ZM104.9,22.9L101,165.2L97.7,74.4L96.7,74.4L93.4,139.1L90.9,96.1L89.9,96.2L88.1,117.5L85.2,105.5L84.3,105.7L83,116.1L80.4,108.3L80.4,107.6L52.3,107.6L52.3,108.6L79.6,108.6L82.7,117.9L83.5,118.3L84.9,107.8L87.8,120L88.7,120L90.3,101.1L92.9,145.2L93.9,145.3L97.2,81.9L100.6,175.5L101.6,175.5L105.7,22.9L104.9,22.9Z" style="fill:rgb(160,160,160);stroke:rgb(160,160,160);stroke-width:1px;"/>
    </g>
    <g>
        <path d="M124.8,202.7L123.5,202.7L129.9,31.8L131.2,31.8L124.8,202.7Z" style="fill:rgb(160,160,160);fill-rule:nonzero;stroke:rgb(160,160,160);stroke-width:1px;"/>
        <path d="M131.9,31.826L125.5,202.726L124.8,203.4L123.5,203.4L122.8,202.674L129.2,31.774L129.9,31.1L131.2,31.1L131.9,31.826ZM129.9,31.8L123.5,202.7L124.8,202.7L131.2,31.8L129.9,31.8Z" style="fill:rgb(160,160,160);stroke:rgb(160,160,160);stroke-width:1px;"/>
    </g>
    <g>
        <path d="M135.9,174.5L129.5,31.8L130.8,31.8L137.2,174.5L135.9,174.5Z" style="fill:rgb(160,160,160);fill-rule:nonzero;stroke:rgb(160,160,160);stroke-width:1px;"/>
        <path d="M131.499,31.769L137.899,174.469L137.2,175.2L135.9,175.2L135.201,174.531L128.801,31.831L129.5,31.1L130.8,31.1L131.499,31.769ZM129.5,31.8L135.9,174.5L137.2,174.5L130.8,31.8L129.5,31.8Z" style="fill:rgb(160,160,160);stroke:rgb(160,160,160);stroke-width:1px;"/>
    </g>
    <g>
        <path d="M137.6,174.5L136.3,174.5L142,56.1L143.3,56.1L137.6,174.5Z" style="fill:rgb(160,160,160);fill-rule:nonzero;stroke:rgb(160,160,160);stroke-width:1px;"/>
        <path d="M143.999,56.134L138.299,174.534L137.6,175.2L136.3,175.2L135.601,174.466L141.301,56.066L142,55.4L143.3,55.4L143.999,56.134ZM142,56.1L136.3,174.5L137.6,174.5L143.3,56.1L142,56.1Z" style="fill:rgb(160,160,160);stroke:rgb(160,160,160);stroke-width:1px;"/>
    </g>
    <g>
        <path d="M148.7,161.6L142.3,56.1L143.6,56.1L150,161.6L148.7,161.6Z" style="fill:rgb(160,160,160);fill-rule:nonzero;stroke:rgb(160,160,160);stroke-width:1px;"/>
        <path d="M144.299,56.058L150.699,161.558L150,162.3L148.7,162.3L148.001,161.642L141.601,56.142L142.3,55.4L143.6,55.4L144.299,56.058ZM142.3,56.1L148.7,161.6L150,161.6L143.6,56.1L142.3,56.1Z" style="fill:rgb(160,160,160);stroke:rgb(160,160,160);stroke-width:1px;"/>
    </g>
    <g>
        <path d="M150.3,161.6L149,161.6L154.1,61L155.4,61.1L150.3,161.6Z" style="fill:rgb(160,160,160);fill-rule:nonzero;stroke:rgb(160,160,160);stroke-width:1px;"/>
        <path d="M155.454,60.402L156.099,61.135L150.999,161.635L150.3,162.3L149,162.3L148.301,161.565L153.401,60.965L154.154,60.302L155.454,60.402ZM149,161.6L150.3,161.6L155.4,61.1L154.1,61L149,161.6Z" style="fill:rgb(160,160,160);stroke:rgb(160,160,160);stroke-width:1px;"/>
    </g>
    <g>
        <path d="M159.4,156.7L154.4,61L155.7,61L160.7,156.6L159.4,156.7Z" style="fill:rgb(160,160,160);fill-rule:nonzero;stroke:rgb(160,160,160);stroke-width:1px;"/>
        <path d="M156.399,60.963L161.399,156.563L160.754,157.298L159.454,157.398L158.701,156.737L153.701,61.037L154.4,60.3L155.7,60.3L156.399,60.963ZM154.4,61L159.4,156.7L160.7,156.6L155.7,61L154.4,61Z" style="fill:rgb(160,160,160);stroke:rgb(160,160,160);stroke-width:1px;"/>
    </g>
    <g>
        <path d="M161.1,156.7L159.8,156.6L164.1,66L165.4,66L161.1,156.7Z" style="fill:rgb(160,160,160);fill-rule:nonzero;stroke:rgb(160,160,160);stroke-width:1px;"/>
        <path d="M166.099,66.033L161.799,156.733L161.046,157.398L159.746,157.298L159.101,156.567L163.401,65.967L164.1,65.3L165.4,65.3L166.099,66.033ZM164.1,66L159.8,156.6L161.1,156.7L165.4,66L164.1,66Z" style="fill:rgb(160,160,160);stroke:rgb(160,160,160);stroke-width:1px;"/>
    </g>
    <g>
        <path d="M167.5,148.2L164.5,66L165.8,66L168.8,148.2L167.5,148.2Z" style="fill:rgb(160,160,160);fill-rule:nonzero;stroke:rgb(160,160,160);stroke-width:1px;"/>
        <path d="M166.5,65.974L169.5,148.174L168.8,148.9L167.5,148.9L166.8,148.226L163.8,66.026L164.5,65.3L165.8,65.3L166.5,65.974ZM164.5,66L167.5,148.2L168.8,148.2L165.8,66L164.5,66Z" style="fill:rgb(160,160,160);stroke:rgb(160,160,160);stroke-width:1px;"/>
    </g>
    <g>
        <path d="M169.1,148.3L167.8,148.2L173.5,52.1L174.8,52.1L169.1,148.3Z" style="fill:rgb(160,160,160);fill-rule:nonzero;stroke:rgb(160,160,160);stroke-width:1px;"/>
        <path d="M175.499,52.141L169.799,148.341L169.046,148.998L167.746,148.898L167.101,148.159L172.801,52.059L173.5,51.4L174.8,51.4L175.499,52.141ZM173.5,52.1L167.8,148.2L169.1,148.3L174.8,52.1L173.5,52.1Z" style="fill:rgb(160,160,160);stroke:rgb(160,160,160);stroke-width:1px;"/>
    </g>
    <g>
        <path d="M174.9,144.3L173.9,52.1L175.2,52.1L176.2,144.3L174.9,144.3Z" style="fill:rgb(160,160,160);fill-rule:nonzero;stroke:rgb(160,160,160);stroke-width:1px;"/>
        <path d="M175.9,52.092L176.9,144.292L176.2,145L174.9,145L174.2,144.308L173.2,52.108L173.9,51.4L175.2,51.4L175.9,52.092ZM173.9,52.1L174.9,144.3L176.2,144.3L175.2,52.1L173.9,52.1Z" style="fill:rgb(160,160,160);stroke:rgb(160,160,160);stroke-width:1px;"/>
    </g>
    <g>
        <path d="M176.5,144.3L175.2,144.3L178.9,76.4L180.2,76.4L176.5,144.3Z" style="fill:rgb(160,160,160);fill-rule:nonzero;stroke:rgb(160,160,160);stroke-width:1px;"/>
        <path d="M180.899,76.438L177.199,144.338L176.5,145L175.2,145L174.501,144.262L178.201,76.362L178.9,75.7L180.2,75.7L180.899,76.438ZM178.9,76.4L175.2,144.3L176.5,144.3L180.2,76.4L178.9,76.4Z" style="fill:rgb(160,160,160);stroke:rgb(160,160,160);stroke-width:1px;"/>
    </g>
    <g>
        <path d="M180.9,136.8L179.3,76.4L180.6,76.4L182.2,136.8L180.9,136.8Z" style="fill:rgb(160,160,160);fill-rule:nonzero;stroke:rgb(160,160,160);stroke-width:1px;"/>
        <path d="M181.3,76.381L182.9,136.781L182.2,137.5L180.9,137.5L180.2,136.819L178.6,76.419L179.3,75.7L180.6,75.7L181.3,76.381ZM179.3,76.4L180.9,136.8L182.2,136.8L180.6,76.4L179.3,76.4Z" style="fill:rgb(160,160,160);stroke:rgb(160,160,160);stroke-width:1px;"/>
    </g>
    <g>
        <path d="M182.6,136.9L181.3,136.8L185.6,88.7L186.9,88.8L182.6,136.9Z" style="fill:rgb(160,160,160);fill-rule:nonzero;stroke:rgb(160,160,160);stroke-width:1px;"/>
        <path d="M186.954,88.102L187.597,88.862L183.297,136.962L182.546,137.598L181.246,137.498L180.603,136.738L184.903,88.638L185.654,88.002L186.954,88.102ZM181.3,136.8L182.6,136.9L186.9,88.8L185.6,88.7L181.3,136.8Z" style="fill:rgb(160,160,160);stroke:rgb(160,160,160);stroke-width:1px;"/>
    </g>
    <g>
        <path d="M190.4,156.7L186,88.7L187.3,88.7L191.7,156.6L190.4,156.7Z" style="fill:rgb(160,160,160);fill-rule:nonzero;stroke:rgb(160,160,160);stroke-width:1px;"/>
        <path d="M187.999,88.655L192.399,156.555L191.754,157.298L190.454,157.398L189.701,156.745L185.301,88.745L186,88L187.3,88L187.999,88.655ZM186,88.7L190.4,156.7L191.7,156.6L187.3,88.7L186,88.7Z" style="fill:rgb(160,160,160);stroke:rgb(160,160,160);stroke-width:1px;"/>
    </g>
    <g>
        <path d="M192,156.7L190.7,156.6L193.7,93.7L195,93.8L192,156.7Z" style="fill:rgb(160,160,160);fill-rule:nonzero;stroke:rgb(160,160,160);stroke-width:1px;"/>
        <path d="M195.054,93.102L195.699,93.833L192.699,156.733L191.946,157.398L190.646,157.298L190.001,156.567L193.001,93.667L193.754,93.002L195.054,93.102ZM190.7,156.6L192,156.7L195,93.8L193.7,93.7L190.7,156.6Z" style="fill:rgb(160,160,160);stroke:rgb(160,160,160);stroke-width:1px;"/>
    </g>
    <g>
        <path d="M200.4,135.4L194.1,93.8L195.4,93.7L201.7,135.3L200.4,135.4Z" style="fill:rgb(160,160,160);fill-rule:nonzero;stroke:rgb(160,160,160);stroke-width:1px;"/>
        <path d="M196.092,93.595L202.392,135.195L201.754,135.998L200.454,136.098L199.708,135.505L193.408,93.905L194.046,93.102L195.346,93.002L196.092,93.595ZM194.1,93.8L200.4,135.4L201.7,135.3L195.4,93.7L194.1,93.8Z" style="fill:rgb(160,160,160);stroke:rgb(160,160,160);stroke-width:1px;"/>
    </g>
    <g>
        <path d="M202.1,135.5L200.8,135.3L208.5,98.9L209.8,99L202.1,135.5Z" style="fill:rgb(160,160,160);fill-rule:nonzero;stroke:rgb(160,160,160);stroke-width:1px;"/>
        <path d="M209.854,98.302L210.485,99.144L202.785,135.644L201.994,136.192L200.694,135.992L200.115,135.155L207.815,98.755L208.554,98.202L209.854,98.302ZM200.8,135.3L202.1,135.5L209.8,99L208.5,98.9L200.8,135.3Z" style="fill:rgb(160,160,160);stroke:rgb(160,160,160);stroke-width:1px;"/>
    </g>
    <g>
        <path d="M213.2,127L208.8,99L210.1,98.9L214.5,126.9L213.2,127Z" style="fill:rgb(160,160,160);fill-rule:nonzero;stroke:rgb(160,160,160);stroke-width:1px;"/>
        <path d="M210.792,98.791L215.192,126.791L214.554,127.598L213.254,127.698L212.508,127.109L208.108,99.109L208.746,98.302L210.046,98.202L210.792,98.791ZM208.8,99L213.2,127L214.5,126.9L210.1,98.9L208.8,99Z" style="fill:rgb(160,160,160);stroke:rgb(160,160,160);stroke-width:1px;"/>
    </g>
    <g>
        <path d="M214.8,127L213.5,126.9L217.2,104.1L218.5,104.2L214.8,127Z" style="fill:rgb(160,160,160);fill-rule:nonzero;stroke:rgb(160,160,160);stroke-width:1px;"/>
        <path d="M218.554,103.502L219.191,104.312L215.491,127.112L214.746,127.698L213.446,127.598L212.809,126.788L216.509,103.988L217.254,103.402L218.554,103.502ZM213.5,126.9L214.8,127L218.5,104.2L217.2,104.1L213.5,126.9Z" style="fill:rgb(160,160,160);stroke:rgb(160,160,160);stroke-width:1px;"/>
    </g>
    <g>
        <path d="M225.3,122.1L217.6,104.2L218.8,103.9L226.5,121.8L225.3,122.1Z" style="fill:rgb(160,160,160);fill-rule:nonzero;stroke:rgb(160,160,160);stroke-width:1px;"/>
        <path d="M219.443,103.623L227.143,121.523L226.67,122.479L225.47,122.779L224.657,122.377L216.957,104.477L217.43,103.521L218.63,103.221L219.443,103.623ZM217.6,104.2L225.3,122.1L226.5,121.8L218.8,103.9L217.6,104.2Z" style="fill:rgb(160,160,160);stroke:rgb(160,160,160);stroke-width:1px;"/>
    </g>
    <g>
        <path d="M226.9,122.1L225.6,122L231.3,89.2L232.6,89.3L226.9,122.1Z" style="fill:rgb(160,160,160);fill-rule:nonzero;stroke:rgb(160,160,160);stroke-width:1px;"/>
        <path d="M232.654,88.602L233.29,89.42L227.59,122.22L226.846,122.798L225.546,122.698L224.91,121.88L230.61,89.08L231.354,88.502L232.654,88.602ZM225.6,122L226.9,122.1L232.6,89.3L231.3,89.2L225.6,122Z" style="fill:rgb(160,160,160);stroke:rgb(160,160,160);stroke-width:1px;"/>
    </g>
    <g>
        <rect x="231.6" y="89.2" width="1.3" height="55.6" style="fill:rgb(160,160,160);stroke:rgb(160,160,160);stroke-width:1px;"/>
        <path d="M233.6,89.2L233.6,144.8L232.9,145.5L231.6,145.5L230.9,144.8L230.9,89.2L231.6,88.5L232.9,88.5L233.6,89.2ZM231.6,89.2L231.6,144.8L232.9,144.8L232.9,89.2L231.6,89.2Z" style="fill:rgb(160,160,160);stroke:rgb(160,160,160);stroke-width:1px;"/>
    </g>
    <g>
        <path d="M233.2,144.4L232,144.2L244.1,106.5L245.3,106.7L233.2,144.4Z" style="fill:rgb(160,160,160);fill-rule:nonzero;stroke:rgb(160,160,160);stroke-width:1px;"/>
        <path d="M245.415,106.01L245.967,106.914L233.867,144.614L233.085,145.09L231.885,144.89L231.333,143.986L243.433,106.286L244.215,105.81L245.415,106.01ZM232,144.2L233.2,144.4L245.3,106.7L244.1,106.5L232,144.2Z" style="fill:rgb(160,160,160);stroke:rgb(160,160,160);stroke-width:1px;"/>
    </g>
    <g>
        <path d="M248.1,115.7L244.4,107.3L245.6,106.9L249.3,115.4L248.1,115.7Z" style="fill:rgb(160,160,160);fill-rule:nonzero;stroke:rgb(160,160,160);stroke-width:1px;"/>
        <path d="M246.242,106.621L249.942,115.121L249.47,116.079L248.27,116.379L247.459,115.982L243.759,107.582L244.179,106.636L245.379,106.236L246.242,106.621ZM244.4,107.3L248.1,115.7L249.3,115.4L245.6,106.9L244.4,107.3Z" style="fill:rgb(160,160,160);stroke:rgb(160,160,160);stroke-width:1px;"/>
    </g>
    <g>
        <path d="M109.8,211.7L104.7,22.4L106,22.4L111.1,211.6L109.8,211.7Z" style="fill:rgb(160,160,160);fill-rule:nonzero;stroke:rgb(160,160,160);stroke-width:1px;"/>
        <path d="M106.7,22.381L111.8,211.581L111.154,212.298L109.854,212.398L109.1,211.719L104,22.419L104.7,21.7L106,21.7L106.7,22.381ZM104.7,22.4L109.8,211.7L111.1,211.6L106,22.4L104.7,22.4Z" style="fill:rgb(160,160,160);stroke:rgb(160,160,160);stroke-width:1px;"/>
    </g>
    <g>
        <path d="M111.4,211.7L110.1,211.6L117.1,9L118.4,9L111.4,211.7Z" style="fill:rgb(160,160,160);fill-rule:nonzero;stroke:rgb(160,160,160);stroke-width:1px;"/>
        <path d="M119.1,9.024L112.1,211.724L111.346,212.398L110.046,212.298L109.4,211.576L116.4,8.976L117.1,8.3L118.4,8.3L119.1,9.024ZM117.1,9L110.1,211.6L111.4,211.7L118.4,9L117.1,9Z" style="fill:rgb(160,160,160);stroke:rgb(160,160,160);stroke-width:1px;"/>
    </g>
    <g>
        <path d="M123.2,202.2L117.5,9L118.8,9L124.5,202.2L123.2,202.2Z" style="fill:rgb(160,160,160);fill-rule:nonzero;stroke:rgb(160,160,160);stroke-width:1px;"/>
        <path d="M119.5,8.979L125.2,202.179L124.5,202.9L123.2,202.9L122.5,202.221L116.8,9.021L117.5,8.3L118.8,8.3L119.5,8.979ZM117.5,9L123.2,202.2L124.5,202.2L118.8,9L117.5,9Z" style="fill:rgb(160,160,160);stroke:rgb(160,160,160);stroke-width:1px;"/>
    </g>
</svg>
